<?xml version="1.0" standalone="no"?>
<!DOCTYPE svg PUBLIC "-//W3C//DTD SVG 20010904//EN"
 "http://www.w3.org/TR/2001/REC-SVG-20010904/DTD/svg10.dtd">
<svg version="1.0" xmlns="http://www.w3.org/2000/svg"
 width="260.000000pt" height="260.000000pt" viewBox="0 0 260.000000 260.000000"
 preserveAspectRatio="xMidYMid meet">
<metadata>
Created by potrace 1.14, written by Peter Selinger 2001-2017
</metadata>
<g transform="translate(0.000000,260.000000) scale(0.100000,-0.100000)"
fill="#000000" stroke="none">
<path d="M0 1300 l0 -1300 1300 0 1300 0 0 1300 0 1300 -1300 0 -1300 0 0
-1300z m1325 829 c-4 -5 -26 -9 -49 -9 -24 0 -60 -7 -81 -16 -51 -21 -58 -9
-8 13 42 19 147 28 138 12z m-487 -33 c-7 -8 -15 -12 -17 -11 -5 6 10 25 20
25 5 0 4 -6 -3 -14z m162 6 c0 -5 -24 -9 -52 -9 -48 -1 -50 0 -18 7 50 11 70
11 70 2z m117 -8 c-3 -3 -12 -4 -19 -1 -8 3 -5 6 6 6 11 1 17 -2 13 -5z m-37
-39 c-7 -8 -48 -40 -90 -70 -43 -30 -93 -73 -112 -95 -68 -86 -77 -93 -39 -35
38 60 81 99 176 164 28 19 54 41 58 48 5 8 11 12 14 9 3 -3 0 -12 -7 -21z
m-280 -15 c-6 -11 -14 -20 -18 -20 -4 0 -29 -21 -55 -45 -26 -25 -52 -45 -57
-45 -21 0 -8 20 31 47 23 15 55 40 73 55 37 33 40 34 26 8z m304 -126 c9 -3
16 -12 16 -19 0 -16 -60 -29 -74 -15 -7 7 -6 10 2 10 7 0 11 3 11 8 -4 23 12
29 45 16z m600 -24 c25 -10 46 -22 46 -25 0 -4 -4 -4 -9 0 -16 9 -214 34 -241
29 -116 -19 -148 -28 -192 -50 -65 -33 -74 -24 -11 11 72 40 136 54 255 54 85
1 116 -3 152 -19z m216 -105 c0 -16 -25 -37 -34 -28 -4 4 -11 1 -16 -7 -12
-19 -13 -67 -1 -75 13 -8 38 -59 46 -95 16 -71 -44 -309 -88 -347 -14 -13 -21
-15 -24 -5 -6 15 -23 16 -23 1 0 -7 -25 -40 -56 -75 -42 -49 -73 -72 -132
-101 -68 -34 -85 -38 -170 -41 l-94 -4 34 -29 33 -29 -59 26 c-33 14 -73 37
-90 51 -18 15 -32 21 -34 14 -2 -6 -14 -11 -27 -11 -30 0 -115 92 -108 118 3
11 -7 25 -27 41 -17 12 -40 43 -51 68 -25 58 -24 69 2 20 28 -54 274 -237 318
-237 52 0 224 76 265 116 29 30 66 121 66 165 0 71 -66 139 -133 138 -23 0
-35 -3 -27 -6 50 -20 80 -128 50 -182 -9 -17 -8 -21 5 -21 9 0 25 5 36 10 29
16 24 -4 -12 -45 -40 -45 -99 -79 -166 -96 -47 -11 -57 -11 -88 4 -53 25 -75
80 -75 190 0 56 4 86 10 82 6 -3 10 -19 10 -34 0 -16 7 -34 15 -41 13 -11 15
-7 15 22 0 54 12 128 20 128 5 0 11 -18 15 -40 4 -22 9 -40 12 -40 12 0 63 50
51 50 -24 1 14 16 86 35 63 16 67 19 50 32 -56 41 -196 34 -214 -11 -7 -17 -9
-13 -9 18 l-1 39 -25 -23 c-34 -31 -32 -10 2 31 l28 32 -45 -7 c-59 -9 -88
-31 -127 -96 -23 -38 -33 -68 -35 -100 l-1 -45 -6 44 c-5 39 -8 42 -20 28 -7
-10 -24 -17 -36 -17 -23 0 -35 22 -35 68 0 30 57 119 104 160 20 17 32 32 26
32 -23 0 -115 -77 -141 -119 -33 -51 -39 -37 -9 18 27 47 125 111 182 118 24
3 53 14 64 25 12 10 34 22 50 27 16 4 27 11 24 15 -8 13 41 33 71 30 16 -2 41
1 55 6 31 12 42 6 25 -14 -9 -10 -9 -20 0 -39 10 -21 9 -31 -5 -51 -9 -14 -16
-27 -16 -29 0 -3 20 -10 44 -17 25 -7 60 -27 78 -46 18 -18 61 -46 95 -63 33
-17 72 -44 86 -61 14 -16 28 -30 30 -30 2 0 10 48 16 108 16 137 28 193 47
214 11 12 13 21 6 35 -9 16 -6 18 39 15 31 -3 49 -9 49 -17z m64 -31 c13 -5
14 -9 5 -20 -9 -11 -15 -11 -25 -3 -8 6 -11 15 -8 20 6 11 8 11 28 3z m51 -36
c6 -4 -3 -8 -19 -8 -24 0 -27 2 -16 15 7 9 16 12 19 8 3 -4 11 -11 16 -15z
m43 -30 c-2 -6 -14 -12 -26 -13 -17 -1 -19 1 -11 12 14 16 42 17 37 1z m42
-18 c0 -5 -5 -10 -11 -10 -5 0 -7 5 -4 10 3 6 8 10 11 10 2 0 4 -4 4 -10z m75
-71 c13 -24 13 -28 -1 -33 -26 -10 -36 -7 -30 9 5 13 2 14 -17 3 -33 -18 -56
-19 -29 -1 23 16 31 39 10 28 -7 -4 -5 0 4 8 26 21 48 17 63 -14z m23 -51 c-2
-6 -10 -13 -16 -14 -7 -1 -8 0 -2 3 5 2 8 9 4 14 -3 5 0 9 6 9 7 0 10 -5 8
-12z m-32 -51 c-3 -14 -2 -17 6 -9 18 18 39 3 27 -19 -7 -15 -6 -19 5 -19 19
0 33 -27 30 -57 0 -13 2 -23 7 -23 8 0 6 -10 -8 -50 -11 -29 -10 -52 3 -57 7
-3 12 -23 12 -51 0 -26 3 -60 7 -75 16 -59 -13 -115 -107 -211 -53 -55 -91
-87 -96 -81 -8 9 -22 63 -37 142 -5 25 3 50 41 125 39 78 48 106 56 178 5 56
5 86 -2 88 -14 5 -12 22 3 22 6 0 13 12 13 26 1 17 -2 24 -11 20 -7 -2 -21 1
-31 9 -18 12 -17 14 6 34 14 11 31 18 37 16 7 -2 12 -1 12 3 -3 17 2 21 17 15
10 -4 14 -13 10 -26z m-84 1 c-6 -6 -15 -8 -19 -4 -4 4 -1 11 7 16 19 12 27 3
12 -12z m163 -28 c-3 -5 -10 -10 -16 -10 -5 0 -9 5 -9 10 0 6 7 10 16 10 8 0
12 -4 9 -10z m-1298 -142 c-3 -8 -6 -5 -6 6 -1 11 2 17 5 13 3 -3 4 -12 1 -19z
m-192 -117 c-4 -24 -2 -42 4 -46 16 -9 13 -25 -4 -25 -11 0 -15 11 -15 39 0
39 8 71 17 71 3 0 2 -18 -2 -39z m459 -61 c24 -30 46 -62 50 -70 12 -23 -80
79 -116 130 -31 44 -31 45 -4 20 16 -14 47 -50 70 -80z m730 -18 c8 -13 -57
-131 -95 -171 -19 -20 -38 -43 -44 -52 -15 -24 -101 -88 -157 -116 -26 -13
-82 -30 -123 -38 -41 -8 -85 -21 -98 -29 -17 -10 -41 -12 -107 -5 -106 10
-222 33 -262 54 -17 8 -36 15 -42 15 -6 0 -31 16 -55 35 -24 19 -48 35 -53 35
-5 0 -6 9 -3 20 5 15 2 20 -12 20 -26 1 -44 17 -101 94 -34 45 -52 79 -52 97
0 16 3 29 8 29 12 0 34 -17 33 -26 0 -10 71 -93 80 -94 4 0 2 23 -3 51 -14 75
-5 93 19 39 31 -67 134 -174 196 -204 28 -14 84 -31 124 -38 61 -10 82 -9 145
5 155 35 207 55 294 110 129 81 177 96 187 57 5 -21 27 -28 27 -8 0 6 11 25
24 43 17 22 22 36 15 46 -13 20 -11 27 9 32 29 8 41 7 46 -1z"/>
<path d="M1285 1715 c-34 -16 -84 -54 -72 -55 5 0 22 9 38 20 15 12 45 27 66
35 23 8 30 14 18 14 -11 0 -33 -6 -50 -14z"/>
<path d="M1385 1580 c3 -5 18 -10 33 -9 24 0 25 1 7 9 -28 12 -47 12 -40 0z"/>
<path d="M1415 1426 c-11 -8 -15 -16 -9 -16 5 0 19 -7 30 -16 18 -15 17 -15
-13 -10 -19 3 -33 1 -33 -4 0 -6 4 -10 9 -10 5 0 14 -13 21 -29 18 -44 40 -48
72 -11 30 33 36 71 15 89 -24 20 -71 23 -92 7z"/>
<path d="M1352 1350 c0 -14 2 -19 5 -12 2 6 2 18 0 25 -3 6 -5 1 -5 -13z"/>
<path d="M1680 1311 c-5 -11 -10 -38 -10 -61 0 -22 -7 -54 -15 -70 -19 -36
-13 -37 40 -7 48 27 56 60 29 119 -19 43 -29 47 -44 19z"/>
<path d="M975 910 c10 -11 20 -20 23 -20 3 0 -3 9 -13 20 -10 11 -20 20 -23
20 -3 0 3 -9 13 -20z"/>
<path d="M1035 865 c46 -38 106 -72 143 -80 55 -11 35 10 -32 34 -35 12 -79
33 -97 47 -43 32 -52 31 -14 -1z"/>
</g>
</svg>
